#!OML:ASF E:\id_vita\Project 1\Capture day 1\Session 1\Female.ASF
:FULLY-SPECIFIED
:DEGREES
1531
root 31.2135 16.3645 -9.38093 -180.766 74.4459 159.117
lowerback -13.9745 2.3055 -9.89808
upperback -6.64969 4.87197 -3.3556
thorax 0.244083 2.8352 2.67009
lowerneck 4.54335 0.836301 -2.99644
upperneck -10.6977 1.71017 6.21615
head -4.00945 0.720561 2.30449
rclavicle -6.50368e-014 -2.78299e-015
rhumerus -61.998 -40.6296 -50.9047
rradius 19.2441
rwrist 30.4855
rhand -19.2838 15.9185
rfingers 7.12502
rthumb 7.03123 -13.9447
lclavicle -6.50368e-014 -2.78299e-015
lhumerus -130.48 16.6495 -67.6026
lradius 13.9071
lwrist -119.646
lhand -8.57669 23.7976
lfingers 7.12502
lthumb 17.3539 53.0428
rfemur -6.49596 7.57622 15.2606
rtibia 14.6108
rfoot -11.1457 -26.7016
rtoes -13.8826
lfemur -42.9284 -7.4151 -21.6025
ltibia 28.0351
lfoot -21.7688 2.05862
ltoes -23.4059
1532
root 31.2596 16.3611 -9.41268 -182.002 74.4446 157.994
lowerback -14.0048 2.39266 -9.94105
upperback -6.79353 5.00946 -3.55834
thorax 0.106782 2.92035 2.49189
lowerneck 5.57724 0.700101 -1.97521
upperneck -11.1093 1.48367 5.08671
head -4.28525 0.599095 1.79962
rclavicle -2.68856e-014 2.66371e-014
rhumerus -64.1776 -41.5816 -48.2654
rradius 18.8026
rwrist 31.5257
rhand -19.1005 15.3668
rfingers 7.12502
rthumb 7.20817 -14.4905
lclavicle -2.68856e-014 2.66371e-014
lhumerus -130.834 14.5583 -70.3729
lradius 14.687
lwrist -122.572
lhand -8.48609 24.0703
lfingers 7.12502
lthumb 17.4411 53.3078
rfemur -6.80762 7.13425 14.9213
rtibia 15.9986
rfoot -12.1432 -26.4853
rtoes -12.7611
lfemur -42.5043 -7.11203 -22.2164
ltibia 27.9544
lfoot -22.0597 1.92135
ltoes -23.9691
1533
root 31.2971 16.3586 -9.44483 -183.266 74.3441 156.892
lowerback -14.0633 2.36834 -10.071
upperback -6.76301 5.009 -3.6382
thorax 0.165798 2.91942 2.48485
lowerneck 5.50367 0.725333 -2.42463
upperneck -10.768 1.49368 5.45448
head -4.1743 0.604197 1.98541
rclavicle -6.38347e-014 -4.77083e-015
rhumerus -65.9949 -42.6242 -45.4416
rradius 18.1346
rwrist 33.1599
rhand -19.0634 14.966
rfingers 7.12502
rthumb 7.24397 -14.89
lclavicle -6.38347e-014 -4.77083e-015
lhumerus -134.065 6.78902 -81.292
lradius 17.6587
lwrist -135.523
lhand -9.3645 23.01
lfingers 7.12502
lthumb 16.5955 52.3204
rfemur -7.10841 6.58506 14.5719
rtibia 17.4408
rfoot -12.8839 -26.2212
rtoes -12.7469
lfemur -42.0672 -6.85279 -22.874
ltibia 27.8936
lfoot -22.3741 1.66485
ltoes -24.4886
1534
root 31.3304 16.3571 -9.47385 -184.354 74.2276 156.031
lowerback -13.949 2.37832 -10.1421
upperback -6.74917 5.0222 -3.75433
thorax 0.122095 2.92808 2.39621
lowerneck 5.46132 0.73171 -2.37143
upperneck -10.4957 1.48612 5.42778
head -4.08381 0.60049 1.96815
rclavicle -1.54058e-015 6.04305e-014
rhumerus -68.0601 -43.7087 -42.3288
rradius 17.4469
rwrist 35.2158
rhand -18.9685 14.6142
rfingers 7.12502
rthumb 7.33554 -15.2386
lclavicle -1.54058e-015 6.04305e-014
lhumerus -133.302 7.72881 -79.7622
lradius 17.141
lwrist -133.795
lhand -9.08652 24.2361
lfingers 7.12502
lthumb 16.8631 53.5239
rfemur -7.44011 6.01111 14.3065
rtibia 18.9933
rfoot -13.2343 -26.166
rtoes -13.8813
lfemur -41.6011 -6.67246 -23.4036
ltibia 27.8542
lfoot -22.5735 1.34326
ltoes -24.5433
1535
root 31.3572 16.3558 -9.50063 -184.542 74.0133 155.98
lowerback -13.8495 2.36531 -9.99725
upperback -6.76909 4.97773 -3.83972
thorax 0.0750234 2.90523 2.21559
lowerneck 5.25569 0.79949 -2.37937
upperneck -9.79824 1.5265 5.26408
head -4.25343 0.651305 2.12362
rclavicle -9.82369e-014 1.35174e-014
rhumerus -69.9839 -44.6154 -39.4861
rradius 16.8833
rwrist 37.2171
rhand -18.8593 14.3417
rfingers 7.12502
rthumb 7.44097 -15.5074
lclavicle -9.82369e-014 1.35174e-014
lhumerus -131.765 10.6841 -75.33
lradius 15.9327
lwrist -128.468
lhand -8.67772 25.8064
lfingers 7.12502
lthumb 17.2566 55.0602
rfemur -7.92561 5.38066 14.2403
rtibia 20.5524
rfoot -13.2709 -26.1059
rtoes -14.4271
lfemur -41.2818 -6.63267 -23.6594
ltibia 27.7909
lfoot -22.583 1.02803
ltoes -24.3775
1536
root 31.3769 16.3527 -9.52651 -184.079 73.6754 156.617
lowerback -13.5831 2.31118 -9.62984
upperback -6.84066 4.82397 -3.87598
thorax -0.0890804 2.82919 1.93915
lowerneck 4.76439 0.973813 -2.71252
upperneck -9.11079 1.72912 5.55593
head -3.93142 0.759379 2.2632
rclavicle 1.49958e-014 3.85642e-014
rhumerus -72.1528 -45.5077 -36.2581
rradius 16.2783
rwrist 39.6742
rhand -18.8612 14.3099
rfingers 7.12502
rthumb 7.4391 -15.5393
lclavicle 1.49958e-014 3.85642e-014
lhumerus -131.241 11.4421 -74.0559
lradius 15.7202
lwrist -126.975
lhand -8.70954 26.6692
lfingers 7.12502
lthumb 17.226 55.9257
rfemur -8.41007 4.73465 14.3421
rtibia 22.1835
rfoot -13.187 -25.7758
rtoes -14.6577
lfemur -40.9644 -6.68486 -23.7613
ltibia 27.7482
lfoot -22.6182 0.713197
ltoes -24.427
1537
root 31.4294 16.3554 -9.55714 -185.89 73.7861 154.945
lowerback -13.7694 2.40562 -9.86464
upperback -6.85882 5.01727 -4.06854
thorax -0.0323593 2.93164 1.89917
lowerneck 4.77367 0.970354 -2.48483
upperneck -8.8518 1.69699 5.28244
head -3.8305 0.745249 2.12534
rclavicle 3.69864e-014 -3.73715e-014
rhumerus -74.9963 -46.4679 -32.2996
rradius 15.764
rwrist 42.4566
rhand -18.7788 14.0744
rfingers 7.12502
rthumb 7.51868 -15.772
lclavicle 3.69864e-014 -3.73715e-014
lhumerus -130.297 12.9399 -71.924
lradius 15.2544
lwrist -124.668
lhand -8.63028 27.4704
lfingers 7.12502
lthumb 17.3023 56.7202
rfemur -8.86026 4.49884 13.8037
rtibia 23.9358
rfoot -13.3536 -25.2255
rtoes -14.8663
lfemur -40.3969 -6.36935 -24.44
ltibia 27.6821
lfoot -22.8855 0.610465
ltoes -24.3497
1538
root 31.4556 16.3573 -9.58483 -186.287 73.7926 154.686
lowerback -13.7637 2.54256 -9.70328
upperback -6.84663 5.18058 -4.15148
thorax -0.0146787 3.00661 1.74423
lowerneck 4.78318 0.946373 -2.28793
upperneck -8.76642 1.65487 5.07879
head -3.79297 0.725308 2.02055
rclavicle 6.68413e-014 -4.05521e-014
rhumerus -77.1654 -47.3028 -29.1241
rradius 15.4664
rwrist 44.5811
rhand -18.3793 13.3248
rfingers 7.12502
rthumb 7.90423 -16.5074
lclavicle 6.68413e-014 -4.05521e-014
lhumerus -129.785 14.5735 -69.7341
lradius 15.2831
lwrist -122.321
lhand -8.21431 27.9846
lfingers 7.12502
lthumb 17.7026 57.1988
rfemur -9.52775 4.21298 13.6526
rtibia 25.7584
rfoot -13.3064 -24.8714
rtoes -15.282
lfemur -40.0713 -6.24894 -24.6645
ltibia 27.6064
lfoot -22.9972 0.482829
ltoes -24.2435
1539
root 31.4742 16.3591 -9.60129 -187.033 73.6311 154.173
lowerback -14.5638 2.31046 -10.4879
upperback -6.06561 5.06872 -3.58021
thorax 1.12429 2.87149 2.85231
lowerneck 4.53641 1.12935 -2.54646
upperneck -9.27252 1.85014 4.46545
head -3.9238 0.858681 1.85417
rclavicle 1.03412e-013 -1.63003e-014
rhumerus -77.7732 -48.7504 -26.1286
rradius 14.9444
rwrist 47.2378
rhand -17.9349 12.6614
rfingers 7.12502
rthumb 8.33315 -17.1542
lclavicle 1.03412e-013 -1.63003e-014
lhumerus -131.377 14.6002 -69.1533
lradius 15.8286
lwrist -122.105
lhand -7.84791 28.0777
lfingers 7.12502
lthumb 18.0552 57.2597
rfemur -10.0818 3.85343 13.4582
rtibia 27.6236
rfoot -12.9521 -24.4281
rtoes -15.9123
lfemur -39.6231 -5.97324 -25.1011
ltibia 27.4966
lfoot -23.1423 -0.0103243
ltoes -24.0114
